<svg width="29" height="16" viewBox="0 0 29 16" fill="none" xmlns="http://www.w3.org/2000/svg">
<path d="M22.5001 13.7143V16H8.78577V13.7143C8.78577 13.7143 8.78577 9.14286 15.6429 9.14286C22.5001 9.14286 22.5001 13.7143 22.5001 13.7143ZM19.0715 3.42857C19.0715 2.75047 18.8704 2.08759 18.4937 1.52376C18.1169 0.959935 17.5815 0.520486 16.955 0.260986C16.3285 0.00148555 15.6391 -0.0664116 14.974 0.0658806C14.3089 0.198173 13.698 0.524712 13.2185 1.00421C12.739 1.4837 12.4125 2.09461 12.2802 2.75969C12.1479 3.42477 12.2158 4.11414 12.4753 4.74063C12.7348 5.36712 13.1743 5.90259 13.7381 6.27933C14.3019 6.65606 14.9648 6.85714 15.6429 6.85714C16.5522 6.85714 17.4243 6.49592 18.0673 5.85294C18.7103 5.20996 19.0715 4.33789 19.0715 3.42857ZM22.7286 9.21143C23.3533 9.78778 23.857 10.4828 24.2102 11.2559C24.5634 12.029 24.7591 12.8647 24.7858 13.7143V16H28.2143V13.7143C28.2143 13.7143 28.2143 9.77143 22.7286 9.21143ZM21.3572 1.30457e-06C21.0119 0.000207948 20.6687 0.0541879 20.3401 0.160001C21.0087 1.11882 21.3672 2.25964 21.3672 3.42857C21.3672 4.59751 21.0087 5.73832 20.3401 6.69714C20.6687 6.80296 21.0119 6.85694 21.3572 6.85714C22.2665 6.85714 23.1386 6.49592 23.7816 5.85294C24.4245 5.20996 24.7858 4.33789 24.7858 3.42857C24.7858 2.51926 24.4245 1.64719 23.7816 1.00421C23.1386 0.361225 22.2665 1.30457e-06 21.3572 1.30457e-06ZM9.92862 5.71429H6.50005V2.28572H4.21434V5.71429H0.785767V8H4.21434V11.4286H6.50005V8H9.92862V5.71429Z" fill="#0483B5"/>
</svg>
