<svg width="29" height="17" viewBox="0 0 29 17" fill="none" xmlns="http://www.w3.org/2000/svg">
<path d="M22.5001 14.2143V16.5H8.78577V14.2143C8.78577 14.2143 8.78577 9.64286 15.6429 9.64286C22.5001 9.64286 22.5001 14.2143 22.5001 14.2143ZM19.0715 3.92857C19.0715 3.25047 18.8704 2.58759 18.4937 2.02376C18.1169 1.45993 17.5815 1.02049 16.955 0.760986C16.3285 0.501486 15.6391 0.433588 14.974 0.565881C14.3089 0.698173 13.698 1.02471 13.2185 1.50421C12.739 1.9837 12.4125 2.59461 12.2802 3.25969C12.1479 3.92477 12.2158 4.61414 12.4753 5.24063C12.7348 5.86712 13.1743 6.40259 13.7381 6.77933C14.3019 7.15606 14.9648 7.35714 15.6429 7.35714C16.5522 7.35714 17.4243 6.99592 18.0673 6.35294C18.7103 5.70996 19.0715 4.83789 19.0715 3.92857ZM22.7286 9.71143C23.3533 10.2878 23.857 10.9828 24.2102 11.7559C24.5634 12.529 24.7591 13.3647 24.7858 14.2143V16.5H28.2143V14.2143C28.2143 14.2143 28.2143 10.2714 22.7286 9.71143ZM21.3572 0.500001C21.0119 0.500208 20.6687 0.554188 20.3401 0.660001C21.0087 1.61882 21.3672 2.75964 21.3672 3.92857C21.3672 5.09751 21.0087 6.23832 20.3401 7.19714C20.6687 7.30296 21.0119 7.35694 21.3572 7.35714C22.2665 7.35714 23.1386 6.99592 23.7816 6.35294C24.4245 5.70996 24.7858 4.83789 24.7858 3.92857C24.7858 3.01926 24.4245 2.14719 23.7816 1.50421C23.1386 0.861225 22.2665 0.500001 21.3572 0.500001ZM9.92862 6.21429H6.50005V2.78572H4.21434V6.21429H0.785767V8.5H4.21434V11.9286H6.50005V8.5H9.92862V6.21429Z" fill="#FCFCFC"/>
</svg>
