<svg width="18" height="18" viewBox="0 0 18 18" fill="none" xmlns="http://www.w3.org/2000/svg">
<path d="M13.617 8.55263L14.751 7.42526C15.147 7.03158 15.651 6.81684 16.2 6.76316V5.86842L10.8 0.5H1.8C0.801 0.5 0 1.29632 0 2.28947V14.8158C0 15.8 0.801 16.6053 1.8 16.6053H7.2V14.9321L7.317 14.8158H1.8V2.28947H8.1V8.55263H13.617ZM9.9 1.84211L14.85 6.76316H9.9V1.84211ZM14.517 10.19L16.353 12.0153L10.836 17.5H9V15.6747L14.517 10.19ZM17.865 10.5121L16.983 11.3889L15.147 9.56368L16.029 8.68684C16.2 8.50789 16.497 8.50789 16.677 8.68684L17.865 9.8679C18.045 10.0468 18.045 10.3421 17.865 10.5121Z" fill="#878787"/>
</svg>
