<svg width="14" height="14" viewBox="0 0 14 14" fill="none" xmlns="http://www.w3.org/2000/svg">
<path d="M5.49778 4.20778L3.62722 6.22222L10.6111 6.22222L10.6111 7.77778L3.62722 7.77778L5.49778 9.79222L4.47222 10.8889L0.861113 7L4.47222 3.11111L5.49778 4.20778ZM1.94445 14C1.56136 14 1.19396 13.8361 0.92307 13.5444C0.652184 13.2527 0.500001 12.857 0.500001 12.4444L0.500002 8.81222L1.94445 10.3678L1.94445 12.4444L12.0556 12.4444L12.0556 1.55556L1.94445 1.55556L1.94445 3.63222L0.500002 5.18778L0.500002 1.55556C0.500002 1.143 0.652185 0.747335 0.923071 0.455612C1.19396 0.163888 1.56136 -2.8953e-07 1.94445 -2.53463e-07L12.0556 6.98474e-07C12.8572 7.73949e-07 13.5 0.700001 13.5 1.55556L13.5 12.4444C13.5 13.3078 12.8572 14 12.0556 14L1.94445 14Z" fill="#F5F5F5"/>
</svg>
