<svg width="15" height="17" viewBox="0 0 15 17" fill="none" xmlns="http://www.w3.org/2000/svg">
<path d="M2.45548 0.166748C2.01346 0.166748 1.58953 0.342343 1.27697 0.654903C0.964413 0.967464 0.788818 1.39139 0.788818 1.83341V15.1667C0.788818 15.6088 0.964413 16.0327 1.27697 16.3453C1.58953 16.6578 2.01346 16.8334 2.45548 16.8334H12.4555C12.8975 16.8334 13.3214 16.6578 13.634 16.3453C13.9466 16.0327 14.1222 15.6088 14.1222 15.1667V5.16675L9.12215 0.166748H2.45548ZM2.45548 1.83341H8.28882V6.00008H12.4555V15.1667H2.45548V1.83341ZM4.12215 8.50008V10.1667H10.7888V8.50008H4.12215ZM4.12215 11.8334V13.5001H8.28882V11.8334H4.12215Z" fill="#FCFCFC"/>
</svg>
