<svg width="14" height="17" viewBox="0 0 14 17" fill="none" xmlns="http://www.w3.org/2000/svg">
<path d="M1.66667 0C1.22464 0 0.800716 0.175595 0.488155 0.488155C0.175595 0.800716 0 1.22464 0 1.66667V15C0 15.442 0.175595 15.8659 0.488155 16.1785C0.800716 16.4911 1.22464 16.6667 1.66667 16.6667H11.6667C12.1087 16.6667 12.5326 16.4911 12.8452 16.1785C13.1577 15.8659 13.3333 15.442 13.3333 15V5L8.33333 0H1.66667ZM1.66667 1.66667H7.5V5.83333H11.6667V15H1.66667V1.66667ZM3.33333 8.33333V10H10V8.33333H3.33333ZM3.33333 11.6667V13.3333H7.5V11.6667H3.33333Z" fill="#0483B5"/>
</svg>
